<?xml version="1.0" encoding="utf-8"?>
<!-- Generator: Adobe Illustrator 18.1.1, SVG Export Plug-In . SVG Version: 6.00 Build 0)  -->
<svg version="1.1" id="Layer_1" xmlns="http://www.w3.org/2000/svg" xmlns:xlink="http://www.w3.org/1999/xlink" x="0px" y="0px"
     width="24px" height="24px" viewBox="-293 385 24 24" enable-background="new -293 385 24 24" xml:space="preserve">
<path d="M-274.6,389.5l5,5h-3v2.3h-4v-2.3h-3L-274.6,389.5z M-272.6,397.8v2.2h-4v-2.2H-272.6z M-272.6,400.8v1.3h-4v-1.3H-272.6z
     M-283.8,401.2c-2.3,0-6.8,1.1-6.8,3.4v1.7h13.6v-1.7C-277.1,402.4-281.6,401.2-283.8,401.2z M-283.8,399.5c1.9,0,3.4-1.5,3.4-3.4
    c0-1.9-1.5-3.4-3.4-3.4c-1.9,0-3.4,1.5-3.4,3.4C-287.2,398-285.7,399.5-283.8,399.5z"/>
</svg>
