<?xml version="1.0" encoding="utf-8"?>
<!-- Generator: Adobe Illustrator 18.1.1, SVG Export Plug-In . SVG Version: 6.00 Build 0)  -->
<svg version="1.1" id="Layer_1" xmlns="http://www.w3.org/2000/svg" xmlns:xlink="http://www.w3.org/1999/xlink" x="0px" y="0px"
	 width="24px" height="24px" viewBox="-293 385 24 24" enable-background="new -293 385 24 24" xml:space="preserve">
<path d="M-567.6,774.5l5,5h-3v2.3h-4v-2.3h-3L-567.6,774.5z M-565.6,782.8v2.2h-4v-2.2H-565.6z M-565.6,785.8v1.3h-4v-1.3H-565.6z
	 M-576.8,786.2c-2.3,0-6.8,1.1-6.8,3.4v1.7h13.6v-1.7C-570.1,787.4-574.6,786.2-576.8,786.2z M-576.8,784.5c1.9,0,3.4-1.5,3.4-3.4
	c0-1.9-1.5-3.4-3.4-3.4s-3.4,1.5-3.4,3.4C-580.2,783-578.7,784.5-576.8,784.5z"/>
<path d="M-274,389.5l4.3,5h-2.6v2.3h-3.5v-2.3h-2.6L-274,389.5z M-272.3,397.8v2.2h-3.5v-2.2H-272.3z M-272.3,400.8v1.3h-3.5v-1.3
	H-272.3z M-284.8,401.2c-2.3,0-6.8,1.1-6.8,3.4v1.7h13.6v-1.7C-278.1,402.4-282.6,401.2-284.8,401.2z M-284.8,399.5
	c1.9,0,3.4-1.5,3.4-3.4c0-1.9-1.5-3.4-3.4-3.4c-1.9,0-3.4,1.5-3.4,3.4C-288.2,398-286.7,399.5-284.8,399.5z"/>
</svg>
