<?xml version="1.0" encoding="utf-8"?>
<!DOCTYPE svg PUBLIC "-//W3C//DTD SVG 1.1//EN" "http://www.w3.org/Graphics/SVG/1.1/DTD/svg11.dtd">
<svg version="1.1" xmlns="http://www.w3.org/2000/svg" xmlns:xlink="http://www.w3.org/1999/xlink" x="0px" y="0px"
   width="24px" height="24px" viewBox="-293 385 24 24" enable-background="new -293 385 24 24" xml:space="preserve">
<path d="M-273,391h-8l-2-2h-6c-1.1,0-2,0.9-2,2v12c0,1.1,0.9,2,2,2h16c1.1,0,2-0.9,2-2v-10C-271,391.9-271.9,391-273,391z
   M-273.7,403.2h-9.8c-1.3,0-2.3-1-2.3-2.3s1-2.3,2.3-2.3c0.3,0,0.6,0.1,0.8,0.1c0.3-1.8,1.9-3.2,3.7-3.2c2.1,0,3.8,1.7,3.8,3.8v0.8
  h1.5c0.8,0,1.5,0.7,1.5,1.5C-272.1,402.5-272.8,403.2-273.7,403.2z"/>
</svg>
